<svg width="42" height="42" viewBox="0 0 42 42" fill="none" xmlns="http://www.w3.org/2000/svg">
<path d="M10.9911 4H30.6994L37.6905 13.985L20.8453 38.0417L4 13.985L10.9911 4ZM18.448 5.79167L15.4057 12.9583H26.2848L23.2425 5.79167H18.448V5.79167ZM15.1603 14.75L20.8453 32.2438L26.5284 14.75H15.1621H15.1603ZM6.90608 12.9583H13.46L16.5023 5.79167H11.9228L6.90608 12.9583ZM6.72333 14.75L18.9515 32.2134L13.2773 14.75H6.72333V14.75ZM34.7844 12.9583L29.7678 5.79167H25.1883L28.2305 12.9583H34.7844ZM34.9672 14.75H28.4133L22.739 32.2134L34.9672 14.75Z" fill="#3D3D3D" fill-opacity="0.95"/>
</svg>
