<svg width="42" height="42" viewBox="0 0 42 42" fill="none" xmlns="http://www.w3.org/2000/svg">
<path d="M29 5C26.5204 5.00124 24.1302 5.92643 22.296 7.595C21.5988 8.22479 20.9942 8.94996 20.5 9.749C20.0056 8.94985 19.401 8.22438 18.704 7.594C16.8694 5.92613 14.4794 5.00135 12 5C6.486 5 2 9.486 2 15C2 18.722 3.158 21.66 5.871 24.825C9.813 29.425 19.79 36.445 20.213 36.742C20.2969 36.8015 20.3972 36.8335 20.5 36.8335C20.6028 36.8335 20.7031 36.8015 20.787 36.742C21.21 36.445 31.187 29.425 35.13 24.825C37.842 21.66 39 18.722 39 15C39 9.486 34.514 5 29 5ZM34.371 24.175C30.876 28.251 22.191 34.516 20.5 35.72C18.809 34.516 10.124 28.251 6.63 24.175C4.085 21.206 3 18.462 3 15C3 10.037 7.038 6 12 6C14.227 6 16.37 6.829 18.032 8.335C18.8658 9.08905 19.551 9.99263 20.052 10.999C20.222 11.339 20.778 11.339 20.948 10.999C21.4488 9.99279 22.134 9.08949 22.968 8.336C24.6181 6.83406 26.7687 6.00117 29 6C33.962 6 38 10.037 38 15C38 18.462 36.915 21.206 34.371 24.175Z" fill="black"/>
</svg>
