<svg width="25" height="25" viewBox="0 0 25 25" fill="none" xmlns="http://www.w3.org/2000/svg">
<path d="M20.7778 3H5.22222C4 3 3 4 3 5.22222V20.7778C3 22.0011 4 23 5.22222 23H20.7778C22 23 23 22.0011 23 20.7778V5.22222C23 4 22 3 20.7778 3ZM12.9822 19.1367C14.6143 19.1364 16.1794 18.4878 17.3334 17.3337C18.4873 16.1795 19.1356 14.6143 19.1356 12.9822C19.1356 12.6067 19.0878 12.2444 19.0211 11.8889H20.7778V19.9067C20.7778 20.0076 20.7578 20.1076 20.7191 20.2008C20.6804 20.2941 20.6236 20.3787 20.552 20.45C20.4805 20.5212 20.3956 20.5776 20.3022 20.6159C20.2088 20.6543 20.1087 20.6738 20.0078 20.6733H5.99222C5.89126 20.6738 5.79121 20.6543 5.69781 20.6159C5.60441 20.5776 5.5195 20.5212 5.44795 20.45C5.37641 20.3787 5.31964 20.2941 5.2809 20.2008C5.24216 20.1076 5.22222 20.0076 5.22222 19.9067V11.8889H6.94333C6.87556 12.2444 6.82778 12.6067 6.82778 12.9822C6.82807 14.6144 7.47658 16.1796 8.6307 17.3337C9.78482 18.4879 11.3501 19.1364 12.9822 19.1367ZM9.13667 12.9822C9.13667 12.4772 9.23614 11.9772 9.42939 11.5106C9.62265 11.044 9.90591 10.6201 10.263 10.263C10.6201 9.90591 11.044 9.62265 11.5106 9.42939C11.9772 9.23614 12.4772 9.13667 12.9822 9.13667C13.4872 9.13667 13.9873 9.23614 14.4539 9.42939C14.9204 9.62265 15.3443 9.90591 15.7014 10.263C16.0585 10.6201 16.3418 11.044 16.5351 11.5106C16.7283 11.9772 16.8278 12.4772 16.8278 12.9822C16.8278 14.0021 16.4226 14.9803 15.7014 15.7014C14.9803 16.4226 14.0021 16.8278 12.9822 16.8278C11.9623 16.8278 10.9842 16.4226 10.263 15.7014C9.54182 14.9803 9.13667 14.0021 9.13667 12.9822ZM20.0078 8.55556H18.2133C18.0096 8.55497 17.8144 8.47377 17.6703 8.32971C17.5262 8.18564 17.445 7.99041 17.4444 7.78667V5.99C17.4444 5.56556 17.7889 5.22222 18.2122 5.22222H20.0067C20.4333 5.22222 20.7778 5.56556 20.7778 5.99V7.78556C20.7778 8.20889 20.4333 8.55556 20.0078 8.55556Z" fill="#5E4E4A"/>
</svg>
