<svg width="14" height="14" viewBox="0 0 14 14" fill="none" xmlns="http://www.w3.org/2000/svg">
<path d="M11.9 0.699951H2.09995C1.32995 0.699951 0.699951 1.32995 0.699951 2.09995V11.9C0.699951 12.6707 1.32995 13.3 2.09995 13.3H11.9C12.67 13.3 13.3 12.6707 13.3 11.9V2.09995C13.3 1.32995 12.67 0.699951 11.9 0.699951ZM6.98875 10.8661C8.01695 10.8659 9.00298 10.4573 9.72996 9.73017C10.4569 9.00305 10.8654 8.01695 10.8654 6.98875C10.8654 6.75215 10.8353 6.52395 10.7933 6.29995H11.9V11.3512C11.9 11.4148 11.8874 11.4777 11.863 11.5365C11.8386 11.5952 11.8028 11.6486 11.7577 11.6934C11.7127 11.7383 11.6592 11.7738 11.6003 11.798C11.5415 11.8221 11.4785 11.8344 11.4149 11.8342H2.58505C2.52145 11.8344 2.45841 11.8221 2.39957 11.798C2.34073 11.7738 2.28723 11.7383 2.24216 11.6934C2.19709 11.6486 2.16132 11.5952 2.13692 11.5365C2.11251 11.4777 2.09995 11.4148 2.09995 11.3512V6.29995H3.18425C3.14155 6.52395 3.11145 6.75215 3.11145 6.98875C3.11164 8.01702 3.5202 9.00312 4.24729 9.73021C4.97439 10.4573 5.96048 10.8659 6.98875 10.8661ZM4.56605 6.98875C4.56605 6.6706 4.62872 6.35556 4.75047 6.06162C4.87222 5.76769 5.05068 5.50061 5.27564 5.27564C5.50061 5.05068 5.76769 4.87222 6.06162 4.75047C6.35556 4.62872 6.6706 4.56605 6.98875 4.56605C7.30691 4.56605 7.62194 4.62872 7.91588 4.75047C8.20981 4.87222 8.47689 5.05068 8.70186 5.27564C8.92683 5.50061 9.10528 5.76769 9.22703 6.06162C9.34879 6.35556 9.41145 6.6706 9.41145 6.98875C9.41145 7.63129 9.1562 8.24751 8.70186 8.70186C8.24751 9.1562 7.63129 9.41145 6.98875 9.41145C6.34621 9.41145 5.72999 9.1562 5.27564 8.70186C4.8213 8.24751 4.56605 7.63129 4.56605 6.98875ZM11.4149 4.19995H10.2844C10.156 4.19958 10.033 4.14843 9.94224 4.05767C9.85147 3.9669 9.80032 3.84391 9.79995 3.71555V2.58365C9.79995 2.31625 10.017 2.09995 10.2837 2.09995H11.4142C11.683 2.09995 11.9 2.31625 11.9 2.58365V3.71485C11.9 3.98155 11.683 4.19995 11.4149 4.19995Z" fill="#5E4E4A"/>
</svg>
